Coordinates
version=1
nRows=5
nColumns=114
inDegrees=yes

Units are S.I. units (second, meters, Newtons, ...)
If the header above contains a line with 'inDegrees', this indicates whether rotational values are in degrees (yes) or radians (no).

endheader 
time	pelvis_tilt	pelvis_list	pelvis_rotation	pelvis_tx	pelvis_ty	pelvis_tz	hip_flexion_l	hip_adduction_l	hip_rotation_l	hip_flexion_r	hip_adduction_r	hip_rotation_r	knee_angle_l	knee_angle_r	ankle_angle_l	ankle_angle_r	subtalar_angle_l	subtalar_angle_r	mtp_angle_l	mtp_angle_r	lumbar_extension	lumbar_bending	lumbar_rotation	arm_flex_l	arm_add_l	arm_rot_l	arm_flex_r	arm_add_r	arm_rot_r	elbow_flex_l	elbow_flex_r	pro_sup_l	pro_sup_r	addbrev_l/activation	addlong_l/activation	addmagDist_l/activation	addmagIsch_l/activation	addmagMid_l/activation	addmagProx_l/activation	bflh_l/activation	bfsh_l/activation	edl_l/activation	ehl_l/activation	fdl_l/activation	fhl_l/activation	gaslat_l/activation	gasmed_l/activation	glmax1_l/activation	glmax2_l/activation	glmax3_l/activation	glmed1_l/activation	glmed2_l/activation	glmed3_l/activation	glmin1_l/activation	glmin2_l/activation	glmin3_l/activation	grac_l/activation	iliacus_l/activation	perbrev_l/activation	perlong_l/activation	piri_l/activation	psoas_l/activation	recfem_l/activation	sart_l/activation	semimem_l/activation	semiten_l/activation	soleus_l/activation	tfl_l/activation	tibant_l/activation	tibpost_l/activation	vasint_l/activation	vaslat_l/activation	vasmed_l/activation	addbrev_r/activation	addlong_r/activation	addmagDist_r/activation	addmagIsch_r/activation	addmagMid_r/activation	addmagProx_r/activation	bflh_r/activation	bfsh_r/activation	edl_r/activation	ehl_r/activation	fdl_r/activation	fhl_r/activation	gaslat_r/activation	gasmed_r/activation	glmax1_r/activation	glmax2_r/activation	glmax3_r/activation	glmed1_r/activation	glmed2_r/activation	glmed3_r/activation	glmin1_r/activation	glmin2_r/activation	glmin3_r/activation	grac_r/activation	iliacus_r/activation	perbrev_r/activation	perlong_r/activation	piri_r/activation	psoas_r/activation	recfem_r/activation	sart_r/activation	semimem_r/activation	semiten_r/activation	soleus_r/activation	tfl_r/activation	tibant_r/activation	tibpost_r/activation	vasint_r/activation	vaslat_r/activation	vasmed_r/activation	
          5.39000000	         -5.96663381	        -10.40573053	         26.14170991	         -1.78759339	          0.97699050	         -0.07017960	         30.00926254	         -1.83203476	          9.97754973	         -0.71095004	          0.14248321	          8.23152071	         19.67675955	         34.88127010	         -3.32180898	         -1.15188860	        -18.33925796	          8.35634499	        -17.24719667	        -19.19402158	         -0.67041428	         -3.27583118	         41.38936580	         12.69103718	         10.33895416	       -292.33054347	         83.66305979	         59.84379518	         83.00644812	         82.51488298	         67.34154727	         85.54075386	         86.41776623	          0.01002085	          0.01001292	          0.01005129	          0.01005591	          0.01003544	          0.01005337	          0.09596409	          0.01043484	          0.10413953	          0.04736500	          0.06203760	          0.07421786	          0.18250001	          0.31546955	          0.59790621	          0.72819783	          0.15421097	          0.20141477	          0.40464632	          0.60554427	          0.01162221	          0.22520285	          0.34472668	          0.01005941	          0.01006394	          0.01002513	          0.10248090	          0.46809587	          0.01006475	          0.29556288	          0.36398762	          0.14472815	          0.02002066	          0.37450091	          0.33064800	          0.17771625	          0.09188842	          0.03708831	          0.10411310	          0.05432370	          0.01226575	          0.23468421	          0.01014449	          0.02282419	          0.01022783	          0.01052708	          0.01734536	          0.08803057	          0.21256631	          0.09331313	          0.03930262	          0.01500972	          0.01833206	          0.02074686	          0.01669536	          0.01895282	          0.01005616	          0.35256341	          0.13866346	          0.02135835	          0.15435149	          0.05751238	          0.01731193	          0.01097174	          0.20519401	          0.15244336	          0.15824061	          0.01199479	          0.10274198	          0.22521955	          0.04749831	          0.09061752	          0.03778733	          0.01027197	          0.08154274	          0.36327427	          0.02455984	          0.02517318	          0.03810804	          0.02585224	
          5.40000000	         -5.79331251	        -10.18592509	         24.31276305	         -1.78380338	          0.98102278	         -0.06708996	         28.38647126	         -2.78657157	          8.49473598	         -0.94409181	         -0.35996183	          6.37765488	         18.06196906	         34.60316631	         -3.73911600	          1.14599221	        -18.65174080	          5.78698273	        -17.40137397	        -16.86609594	         -0.20066447	         -2.39984325	         40.81826435	         12.83101359	          9.32700247	       -285.99903248	        122.58097673	         63.59888644	         58.66075068	         90.02765916	         67.99308986	         85.49792940	         85.89947677	          0.01002607	          0.01001241	          0.01003347	          0.01003628	          0.01003056	          0.01005937	          0.08298335	          0.25570160	          0.09339101	          0.03949678	          0.05171233	          0.06185732	          0.22229531	          0.26290938	          0.49826380	          0.60683617	          0.12851356	          0.16787041	          0.33722298	          0.50463267	          0.01236205	          0.18787546	          0.28730710	          0.01010770	          0.30814824	          0.20284910	          0.62550417	          0.39009553	          0.37493949	          0.24637724	          0.65675155	          0.12061083	          0.01669974	          0.31223854	          0.30849921	          0.14812712	          0.07657607	          0.03091171	          0.08676235	          0.04527299	          0.17281668	          0.36291254	          0.01404424	          0.01904418	          0.01806334	          0.01430569	          0.01446561	          0.07344056	          0.17720455	          0.07961889	          0.03363201	          0.01283241	          0.01528505	          0.01729282	          0.01392796	          0.01580024	          0.01020857	          0.29385623	          0.11556615	          0.01780882	          0.12889798	          0.04800719	          0.01448665	          0.01110936	          0.17110015	          0.12705768	          0.13188134	          0.01017688	          0.08575664	          0.22671445	          0.03971031	          0.07552249	          0.03150160	          0.01001498	          0.10535538	          0.34097334	          0.04750136	          0.02099922	          0.03176228	          0.02155709	
          5.41000000	         -5.42349519	        -10.05519805	         22.41538946	         -1.78086923	          0.98662949	         -0.06390281	         26.86537256	         -3.77523873	          7.17226715	         -1.19439498	         -0.68516330	          4.74127126	         16.76662620	         34.11535802	         -5.15386563	          3.23979659	        -19.53225456	          4.17426229	        -18.10617179	        -14.85360183	         -0.02964110	         -1.39926602	         40.31710975	         11.63454857	          8.08201419	       -284.38743801	        161.74733669	         57.79882460	         29.13120630	         97.99525116	         66.60905527	         84.76276481	         84.77589532	          0.01005208	          0.05411492	          0.01003332	          0.01003026	          0.01003941	          0.01013920	          0.06915778	          0.21311155	          0.14871661	          0.03292252	          0.04310074	          0.05155429	          0.18525352	          0.21909395	          0.41522735	          0.50570135	          0.10710043	          0.13990806	          0.28103095	          0.42053641	          0.01047807	          0.15660987	          0.23944237	          0.01041770	          0.46992800	          0.34825225	          0.52133445	          0.32509277	          0.55373146	          0.29016226	          0.54732109	          0.10051299	          0.01393462	          0.26020072	          0.25716988	          0.12345035	          0.06381474	          0.02577077	          0.07230718	          0.03773553	          0.14418422	          0.39293851	          0.01184001	          0.01588623	          0.01518849	          0.01439575	          0.01206494	          0.06131039	          0.14776417	          0.06783231	          0.03701443	          0.01339613	          0.01275037	          0.01441633	          0.01163040	          0.01317375	          0.01008090	          0.25781693	          0.09632166	          0.01485290	          0.14812122	          0.04022062	          0.01218482	          0.01032559	          0.50865409	          0.10590869	          0.10991811	          0.01014725	          0.23866508	          0.18897019	          0.03334422	          0.06294156	          0.02626121	          0.01002159	          0.25529171	          0.29935161	          0.05517428	          0.01751740	          0.02647311	          0.01797565	
          5.42000000	         -4.94297885	         -9.90229054	         20.87996403	         -1.77951489	          0.99399159	         -0.06073552	         25.70581487	         -4.45170728	          6.30316527	         -1.40126591	         -0.88978681	          3.09818180	         15.88298555	         33.52332451	         -7.86662040	          4.86377055	        -21.29033442	          3.31484610	        -18.84911291	        -13.09407404	          0.06681109	         -0.50156643	         39.44265436	          9.82486440	          6.39146926	       -287.08236960	        178.40352101	         40.73308035	         16.38102564	        104.42483226	         64.92096106	         84.96913233	         86.23187252	          0.25606533	          0.60269500	          0.01204865	          0.01203562	          0.01650221	          0.08887891	          0.05764748	          0.17761036	          0.71619008	          0.26833536	          0.04499946	          0.04296958	          0.15437886	          0.18257881	          0.34602999	          0.42142206	          0.08925809	          0.11664124	          0.23420853	          0.35045588	          0.05524497	          0.13055894	          0.19956301	          0.01019185	          0.39173496	          0.29022058	          0.43445888	          0.27092829	          0.46148787	          0.24183481	          0.45611610	          0.08376827	          0.01163523	          0.21683431	          0.21490496	          0.70781237	          0.05965152	          0.03784485	          0.08980212	          0.06614458	          0.12021780	          0.32752009	          0.01013536	          0.01325323	          0.01275666	          0.01758860	          0.01007466	          0.11884317	          0.12331817	          0.07106016	          0.03251207	          0.02217542	          0.01071308	          0.01204030	          0.01005120	          0.01098783	          0.01003747	          0.21963704	          0.08028871	          0.01239462	          0.33266648	          0.05783852	          0.01068953	          0.01812316	          0.50129590	          0.08828319	          0.09162206	          0.01016063	          0.23886221	          0.15749025	          0.16689486	          0.05245911	          0.02189633	          0.01003130	          0.21938780	          0.24977267	          0.04622143	          0.01460840	          0.02206376	          0.01498662	
          5.43000000	         -4.37642648	         -9.65624604	         19.71116720	         -1.77940521	          1.00296032	         -0.05761167	         24.76818100	         -4.74097563	          6.00940987	         -1.56945892	         -1.03211362	          1.48555543	         15.58281758	         32.90346045	         -9.85153093	          5.93818548	        -22.15677889	          2.89205916	        -18.05018590	        -11.53899567	          0.25866352	          0.20952171	         38.03518866	          7.23855963	          3.97474390	       -293.97959253	        174.58351864	         20.24501542	         20.59338758	        108.73803850	         61.91882756	         86.09245573	         88.73483297	          0.21344369	          0.50229152	          0.01009182	          0.01007173	          0.01380151	          0.07421071	          0.04805257	          0.29231438	          0.74088591	          0.33487754	          0.03750447	          0.03581057	          0.12865061	          0.15215000	          0.28836691	          0.35118987	          0.07438820	          0.09723710	          0.19519108	          0.29205853	          0.05003098	          0.10888934	          0.16634012	          0.06277485	          0.56943251	          0.53160704	          0.57652116	          0.22579706	          0.62271656	          0.20154825	          0.38016720	          0.07858115	          0.01029034	          0.18069581	          0.17915259	          0.78693606	          0.04971025	          0.03154239	          0.07483640	          0.05512374	          0.10020362	          0.27294277	          0.01011724	          0.01107076	          0.01077612	          0.01484087	          0.01005278	          0.12753923	          0.10417782	          0.06076456	          0.02723722	          0.01863702	          0.02168023	          0.01195785	          0.01006956	          0.01003105	          0.01003908	          0.33804687	          0.06694179	          0.01037122	          0.31061869	          0.09399374	          0.01107102	          0.01640988	          0.41779311	          0.07499712	          0.10323817	          0.01020393	          0.19908319	          0.13125295	          0.13923039	          0.04373164	          0.01826981	          0.01002515	          0.19552635	          0.20820244	          0.03855014	          0.01218558	          0.01838956	          0.01249641	
